<svg xmlns="http://www.w3.org/2000/svg" viewBox="0 0 80 110" aria-hidden="true">
<ellipse cx="40" cy="106" rx="18" ry="3" fill="#000" opacity="0.18"/>
<rect x="30" y="90" width="8" height="14" fill="#c8232c"/>
<rect x="42" y="90" width="8" height="14" fill="#c8232c"/>
<ellipse cx="34" cy="104" rx="6" ry="2.5" fill="#1a1411"/>
<ellipse cx="46" cy="104" rx="6" ry="2.5" fill="#1a1411"/>
<rect x="30" y="62" width="8" height="30" fill="#f4ce96"/>
<rect x="42" y="62" width="8" height="30" fill="#f4ce96"/>
<path d="M28 50 L52 50 L51 66 L29 66 Z" fill="#1a1411"/>
<path d="M26 28 L54 28 L52 54 L28 54 Z" fill="#c8232c"/>
<path d="M26 28 L54 28 L54 32 L26 32 Z" fill="#1a1411"/>
<rect x="38" y="28" width="4" height="26" fill="#1a1411"/>
<text x="40" y="49" text-anchor="middle" font-family="Impact, sans-serif" font-size="10" fill="#fbf3df" font-weight="bold">1</text>
<path d="M26 30 L13 10 L19 6 L32 28 Z" fill="#f4ce96"/>
<circle cx="15" cy="8" r="4.5" fill="#1a1411"/>
<rect x="50" y="30" width="6" height="26" fill="#f4ce96"/>
<circle cx="53" cy="58" r="4.5" fill="#1a1411"/>
<circle cx="40" cy="20" r="11" fill="#f4ce96"/>
<path d="M29 19 Q30 8 40 7 Q50 8 51 19 L46 16 Q42 14 42 17 Q40 14 38 17 Q34 14 32 16 Z" fill="#1a1411"/>
<rect x="29" y="19" width="22" height="3" fill="#fbf3df"/>
<circle cx="37" cy="23" r="1.4" fill="#1a1411"/>
<circle cx="43" cy="23" r="1.4" fill="#1a1411"/>
<path d="M37 27 L43 27" stroke="#1a1411" stroke-width="1.3" fill="none"/>
</svg>
