<svg xmlns="http://www.w3.org/2000/svg" viewBox="0 0 80 110" aria-hidden="true">
<ellipse cx="40" cy="106" rx="18" ry="3" fill="#000" opacity="0.18"/>
<rect x="30" y="90" width="8" height="14" fill="#d65a1f"/>
<rect x="42" y="90" width="8" height="14" fill="#d65a1f"/>
<ellipse cx="34" cy="104" rx="6" ry="2.5" fill="#1a1411"/>
<ellipse cx="46" cy="104" rx="6" ry="2.5" fill="#1a1411"/>
<rect x="30" y="62" width="8" height="30" fill="#e8c089"/>
<rect x="42" y="62" width="8" height="30" fill="#e8c089"/>
<path d="M28 50 L52 50 L51 66 L29 66 Z" fill="#1a1411"/>
<path d="M26 28 L54 28 L52 54 L28 54 Z" fill="#d65a1f"/>
<path d="M26 28 L54 28 L54 32 L26 32 Z" fill="#1a1411"/>
<rect x="38" y="28" width="4" height="26" fill="#1a1411"/>
<text x="40" y="49" text-anchor="middle" font-family="Impact, sans-serif" font-size="10" fill="#fbf3df" font-weight="bold">9</text>
<path d="M26 30 L13 10 L19 6 L32 28 Z" fill="#e8c089"/>
<circle cx="15" cy="8" r="4" fill="#e8c089"/>
<rect x="50" y="30" width="6" height="26" fill="#e8c089"/>
<circle cx="53" cy="58" r="3.5" fill="#e8c089"/>
<circle cx="40" cy="20" r="11" fill="#e8c089"/>
<path d="M28 20 Q28 6 40 5 Q52 6 52 20 L50 12 Q42 10 38 14 Q32 10 30 14 Z" fill="#1a1411"/>
<circle cx="37" cy="23" r="1.4" fill="#1a1411"/>
<circle cx="43" cy="23" r="1.4" fill="#1a1411"/>
<path d="M37 28 Q40 26 43 28" stroke="#1a1411" stroke-width="1.4" fill="none"/><path d="M35 20 L39 21" stroke="#1a1411" stroke-width="1.4"/><path d="M41 21 L45 20" stroke="#1a1411" stroke-width="1.4"/>
</svg>
