<svg xmlns="http://www.w3.org/2000/svg" viewBox="0 0 80 110" aria-hidden="true">
<ellipse cx="40" cy="106" rx="18" ry="3" fill="#000" opacity="0.18"/>
<rect x="30" y="90" width="8" height="14" fill="#1d3557"/>
<rect x="42" y="90" width="8" height="14" fill="#1d3557"/>
<ellipse cx="34" cy="104" rx="6" ry="2.5" fill="#1a1411"/>
<ellipse cx="46" cy="104" rx="6" ry="2.5" fill="#1a1411"/>
<rect x="30" y="62" width="8" height="30" fill="#f4ce96"/>
<rect x="42" y="62" width="8" height="30" fill="#f4ce96"/>
<path d="M28 50 L52 50 L51 66 L29 66 Z" fill="#fbf3df"/>
<path d="M26 28 L54 28 L52 54 L28 54 Z" fill="#1d3557"/>
<path d="M26 28 L54 28 L54 32 L26 32 Z" fill="#fbf3df"/>
<rect x="38" y="28" width="4" height="26" fill="#fbf3df"/>
<text x="40" y="49" text-anchor="middle" font-family="Impact, sans-serif" font-size="10" fill="#fbf3df" font-weight="bold">11</text>
<path d="M26 30 L13 10 L19 6 L32 28 Z" fill="#f4ce96"/>
<circle cx="15" cy="8" r="4" fill="#f4ce96"/>
<rect x="50" y="30" width="6" height="26" fill="#f4ce96"/>
<circle cx="53" cy="58" r="3.5" fill="#f4ce96"/>
<circle cx="40" cy="20" r="11" fill="#f4ce96"/>
<path d="M28 22 Q26 6 40 5 Q54 6 53 22 L52 20 Q56 14 50 12 Q44 18 42 14 Q38 18 34 12 Q26 14 30 20 Z" fill="#5a3a22"/>
<circle cx="37" cy="23" r="1.4" fill="#1a1411"/>
<circle cx="43" cy="23" r="1.4" fill="#1a1411"/>
<path d="M37 27 Q40 29 43 27" stroke="#1a1411" stroke-width="1.2" fill="none"/>
</svg>
