<svg xmlns="http://www.w3.org/2000/svg" viewBox="0 0 80 110" aria-hidden="true">
<ellipse cx="40" cy="106" rx="18" ry="3" fill="#000" opacity="0.18"/>
<rect x="30" y="90" width="8" height="14" fill="#fbf3df"/>
<rect x="42" y="90" width="8" height="14" fill="#fbf3df"/>
<ellipse cx="34" cy="104" rx="6" ry="2.5" fill="#1a1411"/>
<ellipse cx="46" cy="104" rx="6" ry="2.5" fill="#1a1411"/>
<rect x="30" y="62" width="8" height="30" fill="#d6a06b"/>
<rect x="42" y="62" width="8" height="30" fill="#d6a06b"/>
<path d="M28 50 L52 50 L51 66 L29 66 Z" fill="#1d3557"/>
<path d="M26 28 L54 28 L52 54 L28 54 Z" fill="#f0c75c"/>
<path d="M26 28 L54 28 L54 32 L26 32 Z" fill="#2e7d4a"/>
<rect x="38" y="28" width="4" height="26" fill="#2e7d4a"/>
<text x="40" y="49" text-anchor="middle" font-family="Impact, sans-serif" font-size="10" fill="#1a1411" font-weight="bold">10</text>
<path d="M26 30 L13 10 L19 6 L32 28 Z" fill="#d6a06b"/>
<circle cx="15" cy="8" r="4" fill="#d6a06b"/>
<rect x="50" y="30" width="6" height="26" fill="#d6a06b"/>
<circle cx="53" cy="58" r="3.5" fill="#d6a06b"/>
<circle cx="40" cy="20" r="11" fill="#d6a06b"/>
<path d="M29 19 Q30 10 40 9 Q50 10 51 19 L48 18 Q42 17 38 18 Q34 17 32 18 Z" fill="#1a1411"/>
<circle cx="37" cy="23" r="1.4" fill="#1a1411"/>
<circle cx="43" cy="23" r="1.4" fill="#1a1411"/>
<path d="M37 28 L43 28" stroke="#1a1411" stroke-width="1.4" fill="none"/>
<path d="M35 26 Q40 28 45 26" stroke="#1a1411" stroke-width="2.4" fill="none" stroke-linecap="round"/>
</svg>
