<svg xmlns="http://www.w3.org/2000/svg" viewBox="0 0 64 64">
  <circle cx="32" cy="32" r="30" fill="#1d3557" stroke="#1a1411" stroke-width="3"/>
  <g stroke="#c8232c" stroke-width="3" stroke-linecap="round" opacity="0.85">
    <line x1="32" y1="3"  x2="32" y2="11"/>
    <line x1="32" y1="53" x2="32" y2="61"/>
    <line x1="3"  y1="32" x2="11" y2="32"/>
    <line x1="53" y1="32" x2="61" y2="32"/>
    <line x1="11" y1="11" x2="17" y2="17"/>
    <line x1="47" y1="47" x2="53" y2="53"/>
    <line x1="53" y1="11" x2="47" y2="17"/>
    <line x1="11" y1="53" x2="17" y2="47"/>
  </g>
  <circle cx="32" cy="32" r="16" fill="#fbf3df" stroke="#1a1411" stroke-width="2.5"/>
  <polygon points="32,22 40.5,28 37,38 27,38 23.5,28" fill="#1a1411"/>
  <path d="M32 22 L32 18 M40.5 28 L44 26 M37 38 L40 41 M27 38 L24 41 M23.5 28 L20 26"
        stroke="#1a1411" stroke-width="2" stroke-linecap="round" fill="none"/>
</svg>
