<svg xmlns="http://www.w3.org/2000/svg" viewBox="-100 -100 200 200" aria-hidden="true">
  <g stroke="#1d3557" stroke-width="2.5" stroke-linecap="round" fill="none" opacity="0.18">
    <line x1="35" y1="0" x2="94" y2="0"/>
    <line x1="32" y1="13" x2="65" y2="27"/>
    <line x1="25" y1="25" x2="66" y2="66"/>
    <line x1="13" y1="32" x2="27" y2="65"/>
    <line x1="0" y1="35" x2="0" y2="94"/>
    <line x1="-13" y1="32" x2="-27" y2="65"/>
    <line x1="-25" y1="25" x2="-66" y2="66"/>
    <line x1="-32" y1="13" x2="-65" y2="27"/>
    <line x1="-35" y1="0" x2="-94" y2="0"/>
    <line x1="-32" y1="-13" x2="-65" y2="-27"/>
    <line x1="-25" y1="-25" x2="-66" y2="-66"/>
    <line x1="-13" y1="-32" x2="-27" y2="-65"/>
    <line x1="0" y1="-35" x2="0" y2="-94"/>
    <line x1="13" y1="-32" x2="27" y2="-65"/>
    <line x1="25" y1="-25" x2="66" y2="-66"/>
    <line x1="32" y1="-13" x2="65" y2="-27"/>
  </g>
  <g stroke="#c8232c" stroke-width="2" stroke-linecap="round" fill="none" opacity="0.22">
    <line x1="48" y1="20" x2="80" y2="34"/>
    <line x1="20" y1="48" x2="34" y2="80"/>
    <line x1="-48" y1="20" x2="-80" y2="34"/>
    <line x1="-20" y1="48" x2="-34" y2="80"/>
    <line x1="-48" y1="-20" x2="-80" y2="-34"/>
    <line x1="-20" y1="-48" x2="-34" y2="-80"/>
    <line x1="48" y1="-20" x2="80" y2="-34"/>
    <line x1="20" y1="-48" x2="34" y2="-80"/>
  </g>
</svg>
